<svg xmlns="http://www.w3.org/2000/svg" viewBox="0 0 512 512">
  <defs>
    <linearGradient id="bg" x1="0%" y1="0%" x2="100%" y2="100%">
      <stop offset="0%" style="stop-color:#10b981"/>
      <stop offset="100%" style="stop-color:#0d9488"/>
    </linearGradient>
  </defs>
  <rect width="512" height="512" rx="108" fill="url(#bg)"/>
  <g transform="translate(256,256) scale(0.55)" fill="white">
    <path d="M0,-200 C80,-200 180,-140 180,-40 C180,40 120,100 60,140 C40,155 20,165 0,170 C-20,165 -40,155 -60,140 C-120,100 -180,40 -180,-40 C-180,-140 -80,-200 0,-200Z" opacity="0.9"/>
    <path d="M0,170 L0,-80" stroke="white" stroke-width="16" fill="none" stroke-linecap="round"/>
    <path d="M0,-20 C-50,-60 -90,-40 -110,-10" stroke="white" stroke-width="14" fill="none" stroke-linecap="round"/>
    <path d="M0,40 C50,0 90,20 110,50" stroke="white" stroke-width="14" fill="none" stroke-linecap="round"/>
    <path d="M0,-80 C40,-120 80,-100 100,-70" stroke="white" stroke-width="14" fill="none" stroke-linecap="round"/>
  </g>
</svg>
